# xmcd
# 
# Track frame offsets:
#     182
#     12007
#     35375
#     50330
#     62785
#     86535
#     104975
#     122727
#     139460
#     157397
#     167435
#     187717
#     197492
#     216942
#     229145
#     242215
#     257035
#     276375
#     295652
#     315995
# 
# Disc length: 4563
# 
# Revision: 2
# Processed by: cddbd v1.5.2PL0 Copyright (c) Steve Scherf et al.
# Submitted via: fre:ac v1.0.27
# 
DISCID=2411d114
DTITLE=Various Artist - Bilk - Ball - The Great British Jazz Jamboree Disc 1
DYEAR=1998
DGENRE=Jazz
TTITLE0=Chris Barber - Bourbon Street Parade
TTITLE1=Acker Bilk - There'll Be Some Changes Made
TTITLE2=Kenny Ball - That's a Plentry
TTITLE3=Chris Barber - Petite Fleur
TTITLE4=Acker Bilk - At Sundown
TTITLE5=Kenny Ball - Tin Roof Blues
TTITLE6=Chris Barber - Willie the Weeper
TTITLE7=Acker Bilk - Wolverine Blues
TTITLE8=Kenny Ball - Ostrich Walk
TTITLE9=Chris Barber - Beale Street Blues
TTITLE10=Acker Bilk - Someday You'll Be Sorry
TTITLE11=Kenny Ball - I Still Love You
TTITLE12=Chris Barber - New Blue
TTITLE13=Acker Bilk - Blaze Away
TTITLE14=Kenny Ball - Hawaiian War Chant
TTITLE15=Chris Barber - Everybody Loves My Baby
TTITLE16=Acker Bilk - Sweet Georgia Brown
TTITLE17=Kenny Ball - Jazz Me Blues
TTITLE18=Chris Barber - Yama Yama Man
TTITLE19=Acker Bilk - Panama Rag
EXTD=YEAR: 1998
EXTT0=
EXTT1=
EXTT2=
EXTT3=
EXTT4=
EXTT5=
EXTT6=
EXTT7=
EXTT8=
EXTT9=
EXTT10=
EXTT11=
EXTT12=
EXTT13=
EXTT14=
EXTT15=
EXTT16=
EXTT17=
EXTT18=
EXTT19=
PLAYORDER=
